<svg xmlns:xlink="http://www.w3.org/1999/xlink" xmlns="http://www.w3.org/2000/svg" class="gl-icon" width="27"  height="30" ><defs><symbol fill="none" id="filter" viewBox="0 0 27 30"><path fill-rule="evenodd" stroke="#000000" clip-rule="evenodd" d="M6 12V8H10V9.5L26 9.5V10.5L10 10.5V12H6ZM7 9H9V11H7V9Z" fill="currentColor"></path><path fill-rule="evenodd" stroke="#000000" clip-rule="evenodd" d="M26 22.5L16 22.5V24H12V22.5L6 22.5V21.5L12 21.5V20H16V21.5L26 21.5V22.5ZM15 21H13V23H15V21Z" fill="currentColor"></path><path fill-rule="evenodd" stroke="#000000" clip-rule="evenodd" d="M22 16.5L6 16.5V15.5L22 15.5V14H26V18H22V16.5ZM23 15H25V17H23V15Z" fill="currentColor"></path></symbol></defs><use xlink:href="#filter"></use><title>Filter</title></svg>