<svg xmlns:xlink="http://www.w3.org/1999/xlink" width="32" height="32" viewBox="0 0 32 32" fill="none" xmlns="http://www.w3.org/2000/svg" role="img" aria-hidden="true" class="instagram"><path fill-rule="evenodd" clip-rule="evenodd" d="M15.9962 4C12.7382 4 12.3297 4.01378 11.0502 4.07205C9.77333 4.13017 8.90133 4.33258 8.13824 4.62851C7.34938 4.93448 6.68038 5.34386 6.01348 6.00944C5.34657 6.67507 4.93638 7.34275 4.62981 8.13004C4.33324 8.89158 4.13048 9.7619 4.07219 11.0362C4.01381 12.3132 4 12.7209 4 15.9725C4 19.224 4.01381 19.6317 4.07219 20.9087C4.13048 22.183 4.33324 23.0533 4.62981 23.8149C4.93638 24.6022 5.34657 25.2698 6.01348 25.9355C6.68038 26.6011 7.34938 27.0104 8.13824 27.3164C8.90133 27.6123 9.77333 27.8147 11.0502 27.8729C12.3297 27.9311 12.7382 27.9449 15.9962 27.9449C19.2542 27.9449 19.6628 27.9311 20.9422 27.8729C22.2191 27.8147 23.0911 27.6123 23.8542 27.3164C24.6431 27.0104 25.3121 26.6011 25.979 25.9355C26.6459 25.2698 27.0561 24.6022 27.3627 23.8149C27.6592 23.0533 27.862 22.183 27.9203 20.9087C27.9787 19.6317 27.9925 19.224 27.9925 15.9725C27.9925 12.7209 27.9787 12.3132 27.9203 11.0362C27.862 9.7619 27.6592 8.89158 27.3627 8.13004C27.0561 7.34275 26.6459 6.67507 25.979 6.00944C25.3121 5.34386 24.6431 4.93448 23.8542 4.62851C23.0911 4.33258 22.2191 4.13017 20.9422 4.07205C19.6628 4.01378 19.2542 4 15.9962 4ZM15.9962 6.1572C19.1994 6.1572 19.5788 6.16941 20.8437 6.22701C22.0133 6.28024 22.6486 6.47528 23.0713 6.63924C23.6312 6.85643 24.0308 7.11587 24.4506 7.53484C24.8704 7.95377 25.1304 8.3526 25.348 8.91145C25.5122 9.33332 25.7077 9.96726 25.761 11.1346C25.8188 12.397 25.831 12.7757 25.831 15.9725C25.831 19.1692 25.8188 19.5479 25.761 20.8104C25.7077 21.9777 25.5122 22.6116 25.348 23.0335C25.1304 23.5923 24.8704 23.9911 24.4506 24.4101C24.0308 24.8291 23.6312 25.0885 23.0713 25.3057C22.6486 25.4696 22.0133 25.6647 20.8437 25.7179C19.579 25.7755 19.1996 25.7877 15.9962 25.7877C12.7929 25.7877 12.4135 25.7755 11.1488 25.7179C9.97914 25.6647 9.3439 25.4696 8.92119 25.3057C8.36129 25.0885 7.96167 24.8291 7.54186 24.4101C7.1221 23.9911 6.8621 23.5923 6.64448 23.0335C6.48024 22.6116 6.28481 21.9777 6.23143 20.8104C6.17371 19.5479 6.16152 19.1692 6.16152 15.9725C6.16152 12.7757 6.17371 12.397 6.23143 11.1346C6.28481 9.96726 6.48024 9.33332 6.64448 8.91145C6.8621 8.3526 7.1221 7.95377 7.54186 7.53484C7.96167 7.11587 8.36129 6.85643 8.92119 6.63924C9.3439 6.47528 9.97914 6.28024 11.1487 6.22701C12.4137 6.16941 12.7931 6.1572 15.9962 6.1572ZM15.9962 19.9633C13.7878 19.9633 11.9975 18.1765 11.9975 15.9725C11.9975 13.7684 13.7878 11.9816 15.9962 11.9816C18.2047 11.9816 19.995 13.7684 19.995 15.9725C19.995 18.1765 18.2047 19.9633 15.9962 19.9633ZM15.9962 9.82444C12.594 9.82444 9.836 12.577 9.836 15.9725C9.836 19.3679 12.594 22.1205 15.9962 22.1205C19.3984 22.1205 22.1565 19.3679 22.1565 15.9725C22.1565 12.577 19.3984 9.82444 15.9962 9.82444ZM23.8394 9.58153C23.8394 10.375 23.1949 11.0182 22.3999 11.0182C21.6048 11.0182 20.9603 10.375 20.9603 9.58153C20.9603 8.78806 21.6048 8.14486 22.3999 8.14486C23.1949 8.14486 23.8394 8.78806 23.8394 9.58153Z" fill="#FFFFFF"></path></svg>